<svg width="94" height="50" viewBox="0 0 94 50" fill="none" xmlns="http://www.w3.org/2000/svg">
<path fill-rule="evenodd" clip-rule="evenodd" d="M39.7014 10V38.8202H33.4281V20.0047L25.3507 32.3151H25.1867L17.1913 20.1282V38.8202H11V10H17.8063L25.3507 22.1868L32.8951 10H39.7014ZM50.2559 16.2787V20.4473H45.3357V16.2787H50.2559ZM50.1329 22.2692V38.8202H45.4587V22.2692H50.1329ZM69.622 38.8202V28.1054C69.622 26.1908 69.13 24.6881 68.1459 23.597C67.1823 22.506 65.8088 21.9605 64.0252 21.9605C63.4307 21.9605 62.8976 22.0325 62.4261 22.1766C61.9546 22.3207 61.5241 22.5163 61.1345 22.7633C60.7451 23.0104 60.3863 23.2986 60.0582 23.6279C59.7507 23.9367 59.4637 24.2661 59.1972 24.616V22.2693H54.523V38.8202H59.1972V29.5875C59.1972 28.4759 59.4535 27.6421 59.966 27.0864C60.4991 26.5099 61.2166 26.2218 62.1186 26.2218C63.0206 26.2218 63.7177 26.5099 64.2097 27.0864C64.7017 27.6421 64.9477 28.4759 64.9477 29.5875V38.8202H69.622ZM82.9388 34.3737V38.1409C82.4468 38.4291 81.9035 38.6555 81.3089 38.8202C80.7144 39.0055 80.0276 39.0981 79.2486 39.0981C78.5311 39.0981 77.875 39.0158 77.2805 38.8511C76.7065 38.707 76.2042 38.4394 75.7737 38.0482C75.3636 37.6571 75.0356 37.1527 74.7896 36.5351C74.5641 35.897 74.4514 35.0942 74.4514 34.1266V26.2834H72.4833V22.2692H74.4514V18.0388H79.1256V22.2692H83.0003V26.2834H79.1256V33.3547C79.1256 34.4251 79.6279 34.9603 80.6324 34.9603C81.4525 34.9603 82.2213 34.7648 82.9388 34.3737Z" fill="#151717"/>
</svg>
